<svg id="svg" version="1.1" xmlns="http://www.w3.org/2000/svg" xmlns:xlink="http://www.w3.org/1999/xlink" width="400" height="400" viewBox="0, 0, 400,400"><g id="svgg"><path id="path0" d="M187.333 0.217 C 186.692 0.278,184.217 0.488,181.833 0.684 C 94.941 7.810,21.034 73.967,3.854 160.000 C -23.870 298.823,95.949 421.405,235.322 396.806 C 317.213 382.352,382.352 317.213,396.806 235.322 C 417.549 117.796,333.032 9.155,214.000 0.335 C 209.932 0.034,190.185 -0.053,187.333 0.217 M232.682 164.417 L 232.698 184.833 233.599 183.667 C 248.396 164.507,279.194 170.352,288.335 194.055 C 296.322 214.767,291.053 240.699,276.790 250.877 C 271.160 254.894,266.670 256.168,258.167 256.162 C 245.691 256.153,237.653 252.649,233.073 245.223 L 231.833 243.215 231.742 248.774 L 231.651 254.333 223.660 254.333 L 215.669 254.333 215.584 199.358 L 215.500 144.384 185.833 199.185 L 156.167 253.986 92.381 253.993 C 38.911 253.999,28.623 253.927,28.768 253.549 C 28.905 253.194,81.388 156.201,86.739 146.417 L 88.060 144.000 160.363 144.000 L 232.667 144.000 232.682 164.417 M345.138 172.995 C 360.027 175.540,371.667 187.399,371.667 200.022 L 371.667 201.000 363.235 201.000 L 354.804 201.000 354.420 199.169 C 351.181 183.726,328.214 181.421,320.209 195.736 C 313.606 207.543,314.965 228.110,322.915 236.697 C 333.676 248.320,352.033 241.964,354.533 225.750 L 354.752 224.333 363.209 224.333 L 371.667 224.333 371.667 225.131 C 371.667 226.703,369.720 233.557,368.423 236.554 C 362.946 249.206,352.799 255.770,338.000 256.234 C 313.937 256.988,299.176 241.304,299.194 215.000 C 299.214 185.402,317.881 168.335,345.138 172.995 M248.091 186.812 C 228.351 191.596,225.928 231.510,244.833 240.486 C 262.138 248.702,277.600 232.672,274.688 209.536 C 272.586 192.838,261.680 183.519,248.091 186.812 " stroke="none" fill="#FFFFFF" fill-rule="evenodd"></path></g></svg>
