<svg id="svg" version="1.1" xmlns="http://www.w3.org/2000/svg" xmlns:xlink="http://www.w3.org/1999/xlink" width="400" height="400" viewBox="0, 0, 400,400"><g id="svgg"><path id="path0" d="M178.500 0.275 C 176.465 0.360,174.800 0.603,174.800 0.815 C 174.800 1.027,173.551 1.200,172.024 1.200 C 170.497 1.200,169.136 1.380,169.000 1.600 C 168.864 1.820,167.784 2.000,166.600 2.000 C 165.416 2.000,164.336 2.180,164.200 2.400 C 164.064 2.620,163.063 2.800,161.976 2.800 C 160.889 2.800,160.000 2.980,160.000 3.200 C 160.000 3.420,159.291 3.600,158.424 3.600 C 157.557 3.600,156.736 3.780,156.600 4.000 C 156.464 4.220,155.553 4.400,154.576 4.400 C 153.599 4.400,152.800 4.580,152.800 4.800 C 152.800 5.020,152.080 5.200,151.200 5.200 C 150.320 5.200,149.600 5.380,149.600 5.600 C 149.600 5.820,148.981 6.000,148.224 6.000 C 147.467 6.000,146.736 6.180,146.600 6.400 C 146.464 6.620,145.823 6.800,145.176 6.800 C 144.529 6.800,144.000 6.980,144.000 7.200 C 144.000 7.420,143.370 7.600,142.600 7.600 C 141.830 7.600,141.200 7.780,141.200 8.000 C 141.200 8.220,140.660 8.400,140.000 8.400 C 139.340 8.400,138.800 8.580,138.800 8.800 C 138.800 9.020,138.260 9.200,137.600 9.200 C 136.940 9.200,136.400 9.356,136.400 9.546 C 136.400 9.736,135.635 9.997,134.700 10.125 C 133.027 10.355,128.270 12.044,125.905 13.247 C 125.523 13.441,124.938 13.600,124.605 13.600 C 124.272 13.600,124.000 13.780,124.000 14.000 C 124.000 14.220,123.561 14.400,123.024 14.400 C 122.487 14.400,121.936 14.580,121.800 14.800 C 121.664 15.020,121.203 15.200,120.776 15.200 C 120.349 15.200,120.000 15.380,120.000 15.600 C 120.000 15.820,119.640 16.000,119.200 16.000 C 118.760 16.000,118.400 16.180,118.400 16.400 C 118.400 16.620,118.128 16.800,117.795 16.800 C 117.462 16.800,116.877 16.960,116.495 17.156 C 116.113 17.352,114.900 17.937,113.800 18.456 C 112.700 18.975,111.740 19.535,111.667 19.700 C 111.593 19.865,111.188 20.000,110.767 20.000 C 110.345 20.000,110.000 20.180,110.000 20.400 C 110.000 20.620,109.640 20.800,109.200 20.800 C 108.760 20.800,108.400 20.980,108.400 21.200 C 108.400 21.420,108.040 21.600,107.600 21.600 C 107.160 21.600,106.800 21.780,106.800 22.000 C 106.800 22.220,106.440 22.400,106.000 22.400 C 105.560 22.400,105.200 22.580,105.200 22.800 C 105.200 23.020,104.964 23.200,104.675 23.200 C 104.387 23.200,103.764 23.560,103.292 24.000 C 102.820 24.440,102.156 24.800,101.817 24.800 C 101.478 24.800,101.200 24.980,101.200 25.200 C 101.200 25.420,100.840 25.600,100.400 25.600 C 99.960 25.600,99.598 25.735,99.595 25.900 C 99.593 26.065,98.828 26.556,97.895 26.990 C 96.009 27.869,93.871 29.240,93.667 29.700 C 93.593 29.865,93.228 30.000,92.855 30.000 C 92.482 30.000,91.917 30.360,91.600 30.800 C 91.283 31.240,90.743 31.600,90.400 31.600 C 90.057 31.600,89.517 31.960,89.200 32.400 C 88.883 32.840,88.343 33.200,88.000 33.200 C 87.657 33.200,87.117 33.560,86.800 34.000 C 86.483 34.440,85.943 34.800,85.600 34.800 C 85.257 34.800,84.717 35.160,84.400 35.600 C 84.083 36.040,83.620 36.400,83.371 36.400 C 83.122 36.400,82.354 36.940,81.663 37.600 C 80.972 38.260,80.252 38.800,80.063 38.800 C 79.874 38.800,79.154 39.340,78.463 40.000 C 77.772 40.660,77.098 41.200,76.964 41.200 C 76.830 41.200,76.242 41.713,75.655 42.341 C 75.069 42.968,74.044 43.764,73.376 44.109 C 72.708 44.455,71.439 45.426,70.556 46.269 C 69.673 47.111,68.151 48.426,67.175 49.191 C 66.199 49.956,64.230 51.804,62.800 53.298 C 59.805 56.427,57.206 59.027,53.063 63.041 C 51.450 64.604,49.606 66.579,48.965 67.429 C 48.324 68.280,47.111 69.693,46.269 70.569 C 45.426 71.445,44.455 72.708,44.109 73.376 C 43.764 74.044,42.968 75.069,42.341 75.655 C 41.713 76.242,41.200 76.830,41.200 76.964 C 41.200 77.098,40.660 77.772,40.000 78.463 C 39.340 79.154,38.800 79.874,38.800 80.063 C 38.800 80.252,38.260 80.972,37.600 81.663 C 36.940 82.354,36.400 83.122,36.400 83.371 C 36.400 83.620,36.040 84.083,35.600 84.400 C 35.160 84.717,34.800 85.257,34.800 85.600 C 34.800 85.943,34.440 86.483,34.000 86.800 C 33.560 87.117,33.200 87.657,33.200 88.000 C 33.200 88.343,32.840 88.883,32.400 89.200 C 31.960 89.517,31.600 90.057,31.600 90.400 C 31.600 90.743,31.240 91.283,30.800 91.600 C 30.360 91.917,30.000 92.482,30.000 92.855 C 30.000 93.228,29.865 93.593,29.700 93.667 C 29.240 93.871,27.869 96.009,26.990 97.895 C 26.556 98.828,26.065 99.593,25.900 99.595 C 25.735 99.598,25.600 99.960,25.600 100.400 C 25.600 100.840,25.420 101.200,25.200 101.200 C 24.980 101.200,24.800 101.478,24.800 101.817 C 24.800 102.156,24.440 102.820,24.000 103.292 C 23.560 103.764,23.200 104.387,23.200 104.675 C 23.200 104.964,23.020 105.200,22.800 105.200 C 22.580 105.200,22.400 105.560,22.400 106.000 C 22.400 106.440,22.220 106.800,22.000 106.800 C 21.780 106.800,21.600 107.160,21.600 107.600 C 21.600 108.040,21.420 108.400,21.200 108.400 C 20.980 108.400,20.800 108.760,20.800 109.200 C 20.800 109.640,20.620 110.000,20.400 110.000 C 20.180 110.000,20.000 110.345,20.000 110.767 C 20.000 111.188,19.865 111.593,19.700 111.667 C 19.535 111.740,18.975 112.700,18.456 113.800 C 17.937 114.900,17.352 116.113,17.156 116.495 C 16.960 116.877,16.800 117.462,16.800 117.795 C 16.800 118.128,16.620 118.400,16.400 118.400 C 16.180 118.400,16.000 118.760,16.000 119.200 C 16.000 119.640,15.820 120.000,15.600 120.000 C 15.380 120.000,15.200 120.349,15.200 120.776 C 15.200 121.203,15.020 121.664,14.800 121.800 C 14.580 121.936,14.400 122.487,14.400 123.024 C 14.400 123.561,14.220 124.000,14.000 124.000 C 13.780 124.000,13.600 124.272,13.600 124.605 C 13.600 124.938,13.441 125.523,13.247 125.905 C 12.044 128.270,10.355 133.027,10.125 134.700 C 9.997 135.635,9.736 136.400,9.546 136.400 C 9.356 136.400,9.200 136.940,9.200 137.600 C 9.200 138.260,9.020 138.800,8.800 138.800 C 8.580 138.800,8.400 139.340,8.400 140.000 C 8.400 140.660,8.220 141.200,8.000 141.200 C 7.780 141.200,7.600 141.830,7.600 142.600 C 7.600 143.370,7.420 144.000,7.200 144.000 C 6.980 144.000,6.800 144.529,6.800 145.176 C 6.800 145.823,6.620 146.464,6.400 146.600 C 6.180 146.736,6.000 147.467,6.000 148.224 C 6.000 148.981,5.820 149.600,5.600 149.600 C 5.380 149.600,5.200 150.320,5.200 151.200 C 5.200 152.080,5.020 152.800,4.800 152.800 C 4.580 152.800,4.400 153.599,4.400 154.576 C 4.400 155.553,4.220 156.464,4.000 156.600 C 3.780 156.736,3.600 157.557,3.600 158.424 C 3.600 159.291,3.420 160.000,3.200 160.000 C 2.980 160.000,2.800 160.889,2.800 161.976 C 2.800 163.063,2.620 164.064,2.400 164.200 C 2.180 164.336,2.000 165.416,2.000 166.600 C 2.000 167.784,1.820 168.864,1.600 169.000 C 1.380 169.136,1.200 170.482,1.200 171.990 C 1.200 173.829,1.035 174.788,0.700 174.900 C -0.032 175.144,-0.032 224.856,0.700 225.100 C 1.035 225.212,1.200 226.171,1.200 228.010 C 1.200 229.518,1.380 230.864,1.600 231.000 C 1.820 231.136,2.000 232.216,2.000 233.400 C 2.000 234.584,2.180 235.664,2.400 235.800 C 2.620 235.936,2.800 236.937,2.800 238.024 C 2.800 239.111,2.962 240.000,3.160 240.000 C 3.358 240.000,3.628 240.810,3.760 241.800 C 3.892 242.790,4.108 244.410,4.240 245.400 C 4.372 246.390,4.642 247.200,4.840 247.200 C 5.038 247.200,5.200 247.920,5.200 248.800 C 5.200 249.680,5.380 250.400,5.600 250.400 C 5.820 250.400,6.000 251.019,6.000 251.776 C 6.000 252.533,6.180 253.264,6.400 253.400 C 6.620 253.536,6.800 254.177,6.800 254.824 C 6.800 255.471,6.980 256.000,7.200 256.000 C 7.420 256.000,7.600 256.630,7.600 257.400 C 7.600 258.170,7.780 258.800,8.000 258.800 C 8.220 258.800,8.400 259.340,8.400 260.000 C 8.400 260.660,8.580 261.200,8.800 261.200 C 9.020 261.200,9.200 261.740,9.200 262.400 C 9.200 263.060,9.380 263.600,9.600 263.600 C 9.820 263.600,10.000 264.044,10.000 264.586 C 10.000 265.490,10.768 268.242,11.567 270.200 C 12.422 272.297,12.923 273.458,13.247 274.095 C 13.441 274.477,13.600 275.062,13.600 275.395 C 13.600 275.728,13.780 276.000,14.000 276.000 C 14.220 276.000,14.400 276.439,14.400 276.976 C 14.400 277.513,14.580 278.064,14.800 278.200 C 15.020 278.336,15.200 278.797,15.200 279.224 C 15.200 279.651,15.380 280.000,15.600 280.000 C 15.820 280.000,16.000 280.360,16.000 280.800 C 16.000 281.240,16.180 281.600,16.400 281.600 C 16.620 281.600,16.800 281.872,16.800 282.205 C 16.800 282.538,16.961 283.123,17.158 283.505 C 17.355 283.887,18.119 285.460,18.856 287.000 C 19.593 288.540,20.332 289.860,20.498 289.933 C 20.664 290.007,20.800 290.412,20.800 290.833 C 20.800 291.255,20.980 291.600,21.200 291.600 C 21.420 291.600,21.600 291.960,21.600 292.400 C 21.600 292.840,21.780 293.200,22.000 293.200 C 22.220 293.200,22.400 293.560,22.400 294.000 C 22.400 294.440,22.580 294.800,22.800 294.800 C 23.020 294.800,23.200 295.036,23.200 295.325 C 23.200 295.613,23.560 296.236,24.000 296.708 C 24.440 297.180,24.800 297.844,24.800 298.183 C 24.800 298.522,24.980 298.800,25.200 298.800 C 25.420 298.800,25.600 299.160,25.600 299.600 C 25.600 300.040,25.735 300.402,25.900 300.405 C 26.065 300.407,26.553 301.172,26.984 302.105 C 27.415 303.037,28.270 304.552,28.884 305.472 C 29.498 306.392,30.000 307.297,30.000 307.484 C 30.000 307.671,30.360 308.083,30.800 308.400 C 31.240 308.717,31.600 309.257,31.600 309.600 C 31.600 309.943,31.960 310.483,32.400 310.800 C 32.840 311.117,33.200 311.657,33.200 312.000 C 33.200 312.343,33.560 312.883,34.000 313.200 C 34.440 313.517,34.800 314.057,34.800 314.400 C 34.800 314.743,35.160 315.283,35.600 315.600 C 36.040 315.917,36.400 316.380,36.400 316.629 C 36.400 316.878,36.940 317.646,37.600 318.337 C 38.260 319.028,38.800 319.748,38.800 319.937 C 38.800 320.126,39.340 320.846,40.000 321.537 C 40.660 322.228,41.200 322.974,41.200 323.196 C 41.200 323.418,41.380 323.600,41.600 323.600 C 41.820 323.600,42.000 323.858,42.000 324.173 C 42.000 324.488,42.341 324.854,42.757 324.986 C 43.173 325.118,43.728 325.744,43.990 326.376 C 44.252 327.009,45.223 328.315,46.147 329.280 C 47.071 330.244,48.268 331.656,48.807 332.417 C 49.346 333.178,51.590 335.562,53.793 337.716 C 58.840 342.648,59.298 343.106,63.086 347.008 C 64.799 348.772,66.830 350.660,67.600 351.202 C 68.370 351.745,69.770 352.957,70.711 353.895 C 71.651 354.833,72.582 355.600,72.778 355.600 C 72.974 355.600,73.884 356.320,74.800 357.200 C 75.716 358.080,76.632 358.800,76.836 358.800 C 77.040 358.800,77.772 359.340,78.463 360.000 C 79.154 360.660,79.922 361.200,80.171 361.200 C 80.420 361.200,80.883 361.560,81.200 362.000 C 81.517 362.440,82.007 362.800,82.288 362.800 C 82.570 362.800,82.800 362.980,82.800 363.200 C 82.800 363.420,83.030 363.600,83.312 363.600 C 83.593 363.600,84.083 363.960,84.400 364.400 C 84.717 364.840,85.257 365.200,85.600 365.200 C 85.943 365.200,86.483 365.560,86.800 366.000 C 87.117 366.440,87.657 366.800,88.000 366.800 C 88.343 366.800,88.883 367.160,89.200 367.600 C 89.517 368.040,90.057 368.400,90.400 368.400 C 90.743 368.400,91.283 368.760,91.600 369.200 C 91.917 369.640,92.414 370.000,92.705 370.000 C 92.996 370.000,93.589 370.331,94.023 370.736 C 94.458 371.141,95.305 371.720,95.907 372.024 C 96.508 372.327,97.737 373.066,98.639 373.665 C 99.540 374.264,100.794 374.884,101.425 375.042 C 102.057 375.201,102.928 375.661,103.362 376.065 C 103.796 376.469,104.387 376.800,104.675 376.800 C 104.964 376.800,105.200 376.980,105.200 377.200 C 105.200 377.420,105.560 377.600,106.000 377.600 C 106.440 377.600,106.800 377.780,106.800 378.000 C 106.800 378.220,107.160 378.400,107.600 378.400 C 108.040 378.400,108.400 378.580,108.400 378.800 C 108.400 379.020,108.760 379.200,109.200 379.200 C 109.640 379.200,110.000 379.380,110.000 379.600 C 110.000 379.820,110.360 380.000,110.800 380.000 C 111.240 380.000,111.601 380.135,111.603 380.300 C 111.607 380.659,113.544 381.600,114.280 381.600 C 114.566 381.600,114.800 381.780,114.800 382.000 C 114.800 382.220,115.149 382.400,115.576 382.400 C 116.003 382.400,116.464 382.580,116.600 382.800 C 116.736 383.020,117.197 383.200,117.624 383.200 C 118.051 383.200,118.400 383.380,118.400 383.600 C 118.400 383.820,118.760 384.000,119.200 384.000 C 119.640 384.000,120.000 384.180,120.000 384.400 C 120.000 384.620,120.349 384.800,120.776 384.800 C 121.203 384.800,121.664 384.980,121.800 385.200 C 121.936 385.420,122.487 385.600,123.024 385.600 C 123.561 385.600,124.000 385.780,124.000 386.000 C 124.000 386.220,124.360 386.400,124.800 386.400 C 125.240 386.400,125.600 386.580,125.600 386.800 C 125.600 387.020,125.962 387.200,126.405 387.200 C 126.848 387.200,127.523 387.359,127.905 387.553 C 129.181 388.202,130.579 388.741,133.200 389.593 C 134.630 390.057,136.099 390.601,136.465 390.800 C 136.831 391.000,138.046 391.285,139.165 391.433 C 140.284 391.582,141.200 391.860,141.200 392.052 C 141.200 392.243,141.830 392.400,142.600 392.400 C 143.370 392.400,144.000 392.580,144.000 392.800 C 144.000 393.020,144.630 393.200,145.400 393.200 C 146.170 393.200,146.800 393.380,146.800 393.600 C 146.800 393.820,147.430 394.000,148.200 394.000 C 148.970 394.000,149.600 394.180,149.600 394.400 C 149.600 394.620,150.320 394.800,151.200 394.800 C 152.080 394.800,152.800 394.980,152.800 395.200 C 152.800 395.420,153.599 395.600,154.576 395.600 C 155.553 395.600,156.464 395.780,156.600 396.000 C 156.736 396.220,157.557 396.400,158.424 396.400 C 159.291 396.400,160.000 396.580,160.000 396.800 C 160.000 397.020,160.889 397.200,161.976 397.200 C 163.063 397.200,164.064 397.380,164.200 397.600 C 164.336 397.820,165.416 398.000,166.600 398.000 C 167.784 398.000,168.864 398.180,169.000 398.400 C 169.136 398.620,170.482 398.800,171.990 398.800 C 173.829 398.800,174.788 398.965,174.900 399.300 C 175.144 400.032,224.856 400.032,225.100 399.300 C 225.212 398.965,226.171 398.800,228.010 398.800 C 229.518 398.800,230.864 398.620,231.000 398.400 C 231.136 398.180,232.216 398.000,233.400 398.000 C 234.584 398.000,235.664 397.820,235.800 397.600 C 235.936 397.380,236.937 397.200,238.024 397.200 C 239.111 397.200,240.000 397.020,240.000 396.800 C 240.000 396.580,240.709 396.400,241.576 396.400 C 242.443 396.400,243.264 396.220,243.400 396.000 C 243.536 395.780,244.447 395.600,245.424 395.600 C 246.401 395.600,247.200 395.420,247.200 395.200 C 247.200 394.980,247.920 394.800,248.800 394.800 C 249.680 394.800,250.400 394.620,250.400 394.400 C 250.400 394.180,251.019 394.000,251.776 394.000 C 252.533 394.000,253.264 393.820,253.400 393.600 C 253.536 393.380,254.177 393.200,254.824 393.200 C 255.471 393.200,256.000 393.020,256.000 392.800 C 256.000 392.580,256.630 392.400,257.400 392.400 C 258.170 392.400,258.800 392.243,258.800 392.052 C 258.800 391.860,259.716 391.582,260.835 391.433 C 261.954 391.285,263.169 391.000,263.535 390.800 C 263.901 390.601,265.370 390.057,266.800 389.593 C 269.421 388.741,270.819 388.202,272.095 387.553 C 272.477 387.359,273.152 387.200,273.595 387.200 C 274.038 387.200,274.400 387.020,274.400 386.800 C 274.400 386.580,274.760 386.400,275.200 386.400 C 275.640 386.400,276.000 386.220,276.000 386.000 C 276.000 385.780,276.439 385.600,276.976 385.600 C 277.513 385.600,278.064 385.420,278.200 385.200 C 278.336 384.980,278.797 384.800,279.224 384.800 C 279.651 384.800,280.000 384.620,280.000 384.400 C 280.000 384.180,280.360 384.000,280.800 384.000 C 281.240 384.000,281.600 383.820,281.600 383.600 C 281.600 383.380,281.872 383.200,282.205 383.200 C 282.538 383.200,283.123 383.039,283.505 382.842 C 283.887 382.645,285.460 381.881,287.000 381.144 C 288.540 380.407,289.860 379.668,289.933 379.502 C 290.007 379.336,290.412 379.200,290.833 379.200 C 291.255 379.200,291.600 379.020,291.600 378.800 C 291.600 378.580,291.960 378.400,292.400 378.400 C 292.840 378.400,293.200 378.220,293.200 378.000 C 293.200 377.780,293.560 377.600,294.000 377.600 C 294.440 377.600,294.800 377.420,294.800 377.200 C 294.800 376.980,295.036 376.800,295.325 376.800 C 295.613 376.800,296.204 376.469,296.638 376.065 C 297.072 375.661,297.943 375.201,298.575 375.042 C 299.206 374.884,300.493 374.224,301.433 373.577 C 302.374 372.930,303.259 372.400,303.400 372.400 C 303.541 372.400,304.441 371.860,305.400 371.200 C 306.359 370.540,307.297 370.000,307.484 370.000 C 307.671 370.000,308.083 369.640,308.400 369.200 C 308.717 368.760,309.257 368.400,309.600 368.400 C 309.943 368.400,310.483 368.040,310.800 367.600 C 311.117 367.160,311.657 366.800,312.000 366.800 C 312.343 366.800,312.883 366.440,313.200 366.000 C 313.517 365.560,314.057 365.200,314.400 365.200 C 314.743 365.200,315.283 364.840,315.600 364.400 C 315.917 363.960,316.380 363.600,316.629 363.600 C 316.878 363.600,317.646 363.060,318.337 362.400 C 319.028 361.740,319.748 361.200,319.937 361.200 C 320.126 361.200,320.846 360.660,321.537 360.000 C 322.228 359.340,322.981 358.800,323.212 358.800 C 323.443 358.800,324.358 358.080,325.247 357.200 C 326.136 356.320,327.024 355.600,327.221 355.600 C 327.418 355.600,328.349 354.833,329.289 353.895 C 330.230 352.957,331.620 351.749,332.378 351.212 C 334.172 349.940,349.940 334.172,351.212 332.378 C 351.749 331.620,352.957 330.230,353.895 329.289 C 354.833 328.349,355.600 327.418,355.600 327.221 C 355.600 327.024,356.320 326.136,357.200 325.247 C 358.080 324.358,358.800 323.443,358.800 323.212 C 358.800 322.981,359.340 322.228,360.000 321.537 C 360.660 320.846,361.200 320.126,361.200 319.937 C 361.200 319.748,361.740 319.028,362.400 318.337 C 363.060 317.646,363.600 316.878,363.600 316.629 C 363.600 316.380,363.960 315.917,364.400 315.600 C 364.840 315.283,365.200 314.743,365.200 314.400 C 365.200 314.057,365.560 313.517,366.000 313.200 C 366.440 312.883,366.800 312.343,366.800 312.000 C 366.800 311.657,367.160 311.117,367.600 310.800 C 368.040 310.483,368.400 309.943,368.400 309.600 C 368.400 309.257,368.760 308.717,369.200 308.400 C 369.640 308.083,370.000 307.671,370.000 307.484 C 370.000 307.297,370.540 306.359,371.200 305.400 C 371.860 304.441,372.400 303.541,372.400 303.400 C 372.400 303.259,372.930 302.374,373.577 301.433 C 374.224 300.493,374.884 299.206,375.042 298.575 C 375.201 297.943,375.661 297.072,376.065 296.638 C 376.469 296.204,376.800 295.613,376.800 295.325 C 376.800 295.036,376.980 294.800,377.200 294.800 C 377.420 294.800,377.600 294.440,377.600 294.000 C 377.600 293.560,377.780 293.200,378.000 293.200 C 378.220 293.200,378.400 292.840,378.400 292.400 C 378.400 291.960,378.580 291.600,378.800 291.600 C 379.020 291.600,379.200 291.255,379.200 290.833 C 379.200 290.412,379.336 290.007,379.502 289.933 C 379.668 289.860,380.407 288.540,381.144 287.000 C 381.881 285.460,382.645 283.887,382.842 283.505 C 383.039 283.123,383.200 282.538,383.200 282.205 C 383.200 281.872,383.380 281.600,383.600 281.600 C 383.820 281.600,384.000 281.240,384.000 280.800 C 384.000 280.360,384.180 280.000,384.400 280.000 C 384.620 280.000,384.800 279.651,384.800 279.224 C 384.800 278.797,384.980 278.336,385.200 278.200 C 385.420 278.064,385.600 277.513,385.600 276.976 C 385.600 276.439,385.780 276.000,386.000 276.000 C 386.220 276.000,386.400 275.640,386.400 275.200 C 386.400 274.760,386.580 274.400,386.800 274.400 C 387.020 274.400,387.200 274.038,387.200 273.595 C 387.200 273.152,387.359 272.477,387.553 272.095 C 388.202 270.819,388.741 269.421,389.593 266.800 C 390.057 265.370,390.601 263.901,390.800 263.535 C 391.000 263.169,391.285 261.954,391.433 260.835 C 391.582 259.716,391.860 258.800,392.052 258.800 C 392.243 258.800,392.400 258.170,392.400 257.400 C 392.400 256.630,392.580 256.000,392.800 256.000 C 393.020 256.000,393.200 255.471,393.200 254.824 C 393.200 254.177,393.380 253.536,393.600 253.400 C 393.820 253.264,394.000 252.533,394.000 251.776 C 394.000 251.019,394.180 250.400,394.400 250.400 C 394.620 250.400,394.800 249.680,394.800 248.800 C 394.800 247.920,394.980 247.200,395.200 247.200 C 395.420 247.200,395.600 246.401,395.600 245.424 C 395.600 244.447,395.780 243.536,396.000 243.400 C 396.220 243.264,396.400 242.443,396.400 241.576 C 396.400 240.709,396.580 240.000,396.800 240.000 C 397.020 240.000,397.200 239.111,397.200 238.024 C 397.200 236.937,397.380 235.936,397.600 235.800 C 397.820 235.664,398.000 234.584,398.000 233.400 C 398.000 232.216,398.180 231.136,398.400 231.000 C 398.620 230.864,398.800 229.518,398.800 228.010 C 398.800 226.171,398.965 225.212,399.300 225.100 C 399.693 224.969,399.800 219.591,399.800 200.000 C 399.800 180.409,399.693 175.031,399.300 174.900 C 398.965 174.788,398.800 173.829,398.800 171.990 C 398.800 170.482,398.620 169.136,398.400 169.000 C 398.180 168.864,398.000 167.784,398.000 166.600 C 398.000 165.416,397.820 164.336,397.600 164.200 C 397.380 164.064,397.200 163.063,397.200 161.976 C 397.200 160.889,397.020 160.000,396.800 160.000 C 396.580 160.000,396.400 159.291,396.400 158.424 C 396.400 157.557,396.220 156.736,396.000 156.600 C 395.780 156.464,395.600 155.553,395.600 154.576 C 395.600 153.599,395.420 152.800,395.200 152.800 C 394.980 152.800,394.800 152.080,394.800 151.200 C 394.800 150.320,394.620 149.600,394.400 149.600 C 394.180 149.600,394.000 148.970,394.000 148.200 C 394.000 147.430,393.820 146.800,393.600 146.800 C 393.380 146.800,393.200 146.170,393.200 145.400 C 393.200 144.630,393.020 144.000,392.800 144.000 C 392.580 144.000,392.400 143.370,392.400 142.600 C 392.400 141.830,392.243 141.200,392.052 141.200 C 391.860 141.200,391.582 140.284,391.433 139.165 C 391.285 138.046,391.000 136.831,390.800 136.465 C 390.601 136.099,390.057 134.630,389.593 133.200 C 388.741 130.579,388.202 129.181,387.553 127.905 C 387.359 127.523,387.200 126.848,387.200 126.405 C 387.200 125.962,387.020 125.600,386.800 125.600 C 386.580 125.600,386.400 125.240,386.400 124.800 C 386.400 124.360,386.220 124.000,386.000 124.000 C 385.780 124.000,385.600 123.561,385.600 123.024 C 385.600 122.487,385.420 121.936,385.200 121.800 C 384.980 121.664,384.800 121.203,384.800 120.776 C 384.800 120.349,384.620 120.000,384.400 120.000 C 384.180 120.000,384.000 119.640,384.000 119.200 C 384.000 118.760,383.820 118.400,383.600 118.400 C 383.380 118.400,383.200 118.051,383.200 117.624 C 383.200 117.197,383.020 116.736,382.800 116.600 C 382.580 116.464,382.400 116.003,382.400 115.576 C 382.400 115.149,382.220 114.800,382.000 114.800 C 381.780 114.800,381.600 114.566,381.600 114.280 C 381.600 113.544,380.659 111.607,380.300 111.603 C 380.135 111.601,380.000 111.240,380.000 110.800 C 380.000 110.360,379.820 110.000,379.600 110.000 C 379.380 110.000,379.200 109.640,379.200 109.200 C 379.200 108.760,379.020 108.400,378.800 108.400 C 378.580 108.400,378.400 108.040,378.400 107.600 C 378.400 107.160,378.220 106.800,378.000 106.800 C 377.780 106.800,377.600 106.440,377.600 106.000 C 377.600 105.560,377.420 105.200,377.200 105.200 C 376.980 105.200,376.800 104.964,376.800 104.675 C 376.800 104.387,376.469 103.796,376.065 103.362 C 375.661 102.928,375.201 102.057,375.042 101.425 C 374.884 100.794,374.264 99.540,373.665 98.639 C 373.066 97.737,372.327 96.508,372.024 95.907 C 371.720 95.305,371.141 94.458,370.736 94.023 C 370.331 93.589,370.000 92.996,370.000 92.705 C 370.000 92.414,369.640 91.917,369.200 91.600 C 368.760 91.283,368.400 90.743,368.400 90.400 C 368.400 90.057,368.040 89.517,367.600 89.200 C 367.160 88.883,366.800 88.343,366.800 88.000 C 366.800 87.657,366.440 87.117,366.000 86.800 C 365.560 86.483,365.200 85.943,365.200 85.600 C 365.200 85.257,364.840 84.717,364.400 84.400 C 363.960 84.083,363.600 83.593,363.600 83.312 C 363.600 83.030,363.420 82.800,363.200 82.800 C 362.980 82.800,362.800 82.570,362.800 82.288 C 362.800 82.007,362.440 81.517,362.000 81.200 C 361.560 80.883,361.200 80.420,361.200 80.171 C 361.200 79.922,360.660 79.154,360.000 78.463 C 359.340 77.772,358.800 77.071,358.800 76.903 C 358.800 76.736,358.080 75.812,357.200 74.849 C 356.320 73.887,355.600 72.946,355.600 72.760 C 355.600 72.574,354.833 71.651,353.895 70.711 C 352.957 69.770,351.745 68.370,351.202 67.600 C 350.660 66.830,348.772 64.799,347.008 63.086 C 343.106 59.298,342.648 58.840,337.716 53.793 C 335.562 51.590,333.178 49.346,332.417 48.807 C 331.656 48.268,330.244 47.071,329.280 46.147 C 328.315 45.223,327.009 44.252,326.376 43.990 C 325.744 43.728,325.118 43.173,324.986 42.757 C 324.854 42.341,324.488 42.000,324.173 42.000 C 323.858 42.000,323.600 41.820,323.600 41.600 C 323.600 41.380,323.418 41.200,323.196 41.200 C 322.974 41.200,322.228 40.660,321.537 40.000 C 320.846 39.340,320.126 38.800,319.937 38.800 C 319.748 38.800,319.028 38.260,318.337 37.600 C 317.646 36.940,316.878 36.400,316.629 36.400 C 316.380 36.400,315.917 36.040,315.600 35.600 C 315.283 35.160,314.743 34.800,314.400 34.800 C 314.057 34.800,313.517 34.440,313.200 34.000 C 312.883 33.560,312.343 33.200,312.000 33.200 C 311.657 33.200,311.117 32.840,310.800 32.400 C 310.483 31.960,309.943 31.600,309.600 31.600 C 309.257 31.600,308.717 31.240,308.400 30.800 C 308.083 30.360,307.671 30.000,307.484 30.000 C 307.297 30.000,306.392 29.498,305.472 28.884 C 304.552 28.270,303.037 27.415,302.105 26.984 C 301.172 26.553,300.407 26.065,300.405 25.900 C 300.402 25.735,300.040 25.600,299.600 25.600 C 299.160 25.600,298.800 25.420,298.800 25.200 C 298.800 24.980,298.522 24.800,298.183 24.800 C 297.844 24.800,297.180 24.440,296.708 24.000 C 296.236 23.560,295.613 23.200,295.325 23.200 C 295.036 23.200,294.800 23.020,294.800 22.800 C 294.800 22.580,294.440 22.400,294.000 22.400 C 293.560 22.400,293.200 22.220,293.200 22.000 C 293.200 21.780,292.840 21.600,292.400 21.600 C 291.960 21.600,291.600 21.420,291.600 21.200 C 291.600 20.980,291.255 20.800,290.833 20.800 C 290.412 20.800,290.007 20.664,289.933 20.498 C 289.860 20.332,288.540 19.593,287.000 18.856 C 285.460 18.119,283.887 17.355,283.505 17.158 C 283.123 16.961,282.538 16.800,282.205 16.800 C 281.872 16.800,281.600 16.620,281.600 16.400 C 281.600 16.180,281.240 16.000,280.800 16.000 C 280.360 16.000,280.000 15.820,280.000 15.600 C 280.000 15.380,279.651 15.200,279.224 15.200 C 278.797 15.200,278.336 15.020,278.200 14.800 C 278.064 14.580,277.513 14.400,276.976 14.400 C 276.439 14.400,276.000 14.220,276.000 14.000 C 276.000 13.780,275.728 13.600,275.395 13.600 C 275.062 13.600,274.477 13.441,274.095 13.247 C 273.713 13.052,272.950 12.716,272.400 12.500 C 271.850 12.284,270.950 11.912,270.400 11.674 C 268.469 10.837,265.562 10.000,264.586 10.000 C 264.044 10.000,263.600 9.820,263.600 9.600 C 263.600 9.380,263.060 9.200,262.400 9.200 C 261.740 9.200,261.200 9.020,261.200 8.800 C 261.200 8.580,260.660 8.400,260.000 8.400 C 259.340 8.400,258.800 8.220,258.800 8.000 C 258.800 7.780,258.170 7.600,257.400 7.600 C 256.630 7.600,256.000 7.420,256.000 7.200 C 256.000 6.980,255.471 6.800,254.824 6.800 C 254.177 6.800,253.536 6.620,253.400 6.400 C 253.264 6.180,252.533 6.000,251.776 6.000 C 251.019 6.000,250.400 5.820,250.400 5.600 C 250.400 5.380,249.680 5.200,248.800 5.200 C 247.920 5.200,247.200 5.038,247.200 4.840 C 247.200 4.642,246.390 4.372,245.400 4.240 C 244.410 4.108,242.790 3.892,241.800 3.760 C 240.810 3.628,240.000 3.358,240.000 3.160 C 240.000 2.962,239.111 2.800,238.024 2.800 C 236.937 2.800,235.936 2.620,235.800 2.400 C 235.664 2.180,234.584 2.000,233.400 2.000 C 232.216 2.000,231.136 1.820,231.000 1.600 C 230.864 1.380,229.518 1.200,228.010 1.200 C 226.196 1.200,225.211 1.033,225.103 0.708 C 224.941 0.223,187.959 -0.121,178.500 0.275 M207.935 141.607 C 220.731 142.955,233.424 149.265,242.628 158.854 C 245.692 162.045,250.000 167.586,250.000 168.336 C 250.000 168.591,250.159 168.800,250.353 168.800 C 250.548 168.800,250.807 169.115,250.930 169.500 C 251.052 169.885,251.759 171.280,252.499 172.600 C 255.208 177.430,257.945 186.101,258.602 191.938 C 258.865 194.274,258.956 194.459,259.744 194.260 C 260.215 194.142,262.040 193.676,263.800 193.225 C 272.386 191.028,282.329 192.760,289.800 197.756 C 293.356 200.134,300.000 207.204,300.000 208.610 C 300.000 208.757,300.329 209.354,300.732 209.938 C 305.474 216.819,305.557 231.898,300.901 240.783 C 296.048 250.043,286.903 256.833,277.200 258.379 C 271.575 259.276,186.924 258.924,186.000 258.000 C 185.208 257.208,185.200 256.667,185.200 202.026 C 185.200 144.798,185.179 145.534,186.880 143.717 C 188.706 141.768,199.340 140.702,207.935 141.607 M173.484 145.986 C 174.190 146.416,175.180 147.541,175.684 148.484 L 176.600 150.200 176.706 202.509 C 176.800 248.839,176.742 254.953,176.199 256.002 C 174.319 259.637,165.753 259.663,163.315 256.041 L 162.400 254.682 162.400 204.118 C 162.400 168.214,162.529 153.040,162.847 151.780 C 164.074 146.906,169.841 143.764,173.484 145.986 M127.507 176.619 C 128.322 176.960,129.401 177.625,129.905 178.099 C 132.091 180.152,132.000 178.490,132.000 216.481 C 132.000 255.888,132.205 253.251,129.021 254.748 C 125.434 256.434,119.940 255.392,118.583 252.768 C 117.724 251.105,117.705 181.724,118.564 180.080 C 120.321 176.718,124.175 175.227,127.507 176.619 M151.198 185.999 C 151.842 186.457,152.780 187.410,153.284 188.116 L 154.200 189.400 154.200 222.474 L 154.200 255.547 153.052 256.745 C 149.963 259.970,142.633 259.186,140.818 255.437 C 139.870 253.480,139.513 193.570,140.429 190.272 C 141.703 185.683,147.516 183.377,151.198 185.999 M106.000 202.771 C 106.770 203.156,107.940 204.236,108.600 205.170 L 109.800 206.869 109.800 223.535 C 109.800 239.400,109.762 240.277,109.000 241.800 C 106.711 246.379,98.898 246.012,96.341 241.206 C 95.577 239.769,95.166 210.269,95.863 206.788 C 96.660 202.802,101.907 200.723,106.000 202.771 " stroke="none" fill="#FFFFFF" fill-rule="evenodd"></path></g></svg>
