<?xml version="1.0" encoding="utf-8"?>
<!-- Generator: Adobe Illustrator 21.0.0, SVG Export Plug-In . SVG Version: 6.00 Build 0)  -->
<svg version="1.1" id="Layer_1" xmlns="http://www.w3.org/2000/svg" xmlns:xlink="http://www.w3.org/1999/xlink" x="0px" y="0px"
	 viewBox="0 0 598.2 598.2" style="enable-background:new 0 0 598.2 598.2;" xml:space="preserve">
<style type="text/css">
	.st0{fill:#FFFFFF;}
</style>
<g>
	<path class="st0" d="M299.1,0C133.9,0,0,133.9,0,299.1s133.9,299.1,299.1,299.1s299.1-133.9,299.1-299.1S464.3,0,299.1,0z
		 M47.3,380.5c-0.2,1.2-1,2-2.1,2s-1.9-0.8-2.1-2l-3.7-28.4l3.8-28.8c0.1-1.2,1-2,2.1-2s1.9,0.8,2.1,2l4.5,28.9L47.3,380.5z
		 M66.7,397.7c-0.2,1.2-1.1,2.1-2.2,2.1s-2-0.9-2.2-2.1l-5.1-45.6l5.1-46.6c0.1-1.2,1.1-2.1,2.2-2.1s2,0.9,2.2,2.1l5.8,46.6
		L66.7,397.7z M87.5,405.4c-0.2,1.5-1.3,2.5-2.6,2.5c-1.4,0-2.5-1.1-2.6-2.6l-4.9-53.2l4.8-55.3c0.1-1.5,1.2-2.5,2.6-2.5
		s2.4,1.1,2.6,2.5l5.5,55.3L87.5,405.4z M108.5,407.1c-0.1,1.7-1.5,3-3,3c-1.6,0-2.9-1.3-3.1-3l-4.6-55l4.6-56.9
		c0.1-1.7,1.4-3,3.1-3c1.6,0,2.9,1.3,3,3l5.2,56.9L108.5,407.1z M129.7,407.6c-0.1,2-1.6,3.4-3.5,3.4c-1.9,0-3.4-1.5-3.5-3.4
		l-4.3-55.5l4.3-52.7c0.1-2,1.6-3.4,3.5-3.4c1.9,0,3.4,1.5,3.5,3.4l4.9,52.8L129.7,407.6z M151,407.6L151,407.6
		c-0.1,2.2-1.8,3.9-3.9,3.9c-2.1,0-3.8-1.7-3.9-3.9l-4-55.5l4-85.8c0.1-2.2,1.8-3.9,3.9-3.9c2.1,0,3.8,1.7,3.9,3.9l4.6,85.8
		L151,407.6z M172.2,407.6L172.2,407.6c-0.1,2.4-2,4.3-4.4,4.3s-4.3-1.9-4.4-4.3l-3.8-55.1l3.8-105.4c0.1-2.4,2-4.3,4.4-4.3
		c2.3,0,4.3,1.9,4.4,4.3l4.3,105.4L172.2,407.6z M194.2,406.7L194.2,406.7c-0.1,2.6-2.2,4.7-4.8,4.7s-4.7-2.1-4.8-4.7l-3.5-54.6
		c0,0,3.5-114.2,3.5-114.3c0.1-2.7,2.2-4.8,4.8-4.8s4.7,2.1,4.8,4.8l4,114.3L194.2,406.7z M216.1,406.4c-0.1,2.9-2.4,5.2-5.3,5.2
		c-2.9,0-5.2-2.3-5.3-5.2l-3.3-54.2l3.3-118.1c0.1-2.9,2.4-5.2,5.3-5.2c2.9,0,5.2,2.3,5.3,5.2l3.7,118.1L216.1,406.4z M238.1,405.9
		L238.1,405.9c-0.1,3.1-2.6,5.6-5.7,5.6c-3.1,0-5.6-2.5-5.7-5.7l-3-53.7l3-115.1c0.1-3.2,2.6-5.7,5.7-5.7c3.1,0,5.6,2.5,5.7,5.7
		l3.4,115.1L238.1,405.9z M260.3,405.6L260.3,405.6c-0.1,3.4-2.8,6.1-6.2,6.1c-3.4,0-6.1-2.7-6.2-6.1l-2.7-53.4l2.7-110.9
		c0.1-3.4,2.8-6.1,6.2-6.1s6.1,2.7,6.2,6.1l3.1,110.9L260.3,405.6z M282.9,399.9l-0.3,5.2c0,1.8-0.8,3.5-2,4.6
		c-1.2,1.2-2.8,1.9-4.6,1.9c-2,0-3.8-0.9-5-2.4c-0.9-1.1-1.5-2.4-1.5-3.9c0-0.1,0-0.1,0-0.2l-2.5-53l2.5-130.7v-1.2
		c0-2.3,1.2-4.3,3-5.5c1-0.7,2.2-1.1,3.5-1.1s2.6,0.4,3.6,1.1c1.7,1.2,2.9,3.2,2.9,5.4l2.8,132L282.9,399.9z M304.9,404.5
		L304.9,404.5L304.9,404.5c-0.1,3.8-3.2,7-7,7s-7-3.1-7-7l-1.4-25.8l-1.5-26.5l2.9-143.2v-0.7c0-2.2,1-4.1,2.6-5.4
		c1.2-1,2.8-1.6,4.4-1.6c1.3,0,2.5,0.4,3.6,1c2,1.2,3.4,3.5,3.5,6l3.1,143.9L304.9,404.5z M494.9,411.6c0,0-176.9,0-177.1,0
		c-3.8-0.4-6.9-3.4-6.9-7.3V201.5c0-3.7,1.3-5.6,6.1-7.5c12.4-4.8,26.5-7.6,40.9-7.6c58.9,0,107.2,45.2,112.3,102.7
		c7.6-3.2,16-5,24.7-5c35.3,0,63.9,28.6,63.9,63.9S530.2,411.6,494.9,411.6z"/>
</g>
</svg>
