<svg id="svg" xmlns="http://www.w3.org/2000/svg" xmlns:xlink="http://www.w3.org/1999/xlink" width="400" height="400" viewBox="50, 50, 300,300"><g id="svgg"><path id="path0" d="M183.294 43.045 C 50.867 57.012,-5.375 220.597,90.361 313.350 C 184.108 404.177,341.590 347.573,356.727 217.610 C 368.324 118.034,283.338 32.493,183.294 43.045 M244.709 130.529 C 249.404 132.110,256.711 136.403,258.617 138.700 C 260.292 140.719,269.897 138.573,278.244 134.314 C 279.981 133.428,281.592 132.894,281.825 133.127 C 283.226 134.528,272.980 147.211,268.357 149.798 C 264.072 152.196,276.355 150.631,282.737 147.965 C 284.200 147.354,285.568 147.026,285.778 147.236 C 286.438 147.896,278.839 156.260,274.140 160.046 L 269.639 163.672 269.585 171.187 C 269.049 245.731,187.709 294.353,120.976 260.021 L 114.453 256.665 123.438 256.187 C 137.669 255.429,149.588 251.664,160.742 244.402 C 166.328 240.765,166.758 239.844,162.866 239.844 C 151.859 239.844,138.100 229.737,133.086 217.969 L 132.253 216.016 139.555 215.986 C 144.195 215.967,147.201 215.611,147.803 215.009 C 148.545 214.268,148.415 214.063,147.205 214.063 C 136.000 214.063,119.531 195.236,119.531 182.427 L 119.531 179.838 123.424 181.317 C 125.564 182.130,129.269 183.025,131.657 183.306 L 135.998 183.816 130.688 178.431 C 119.436 167.021,116.795 154.493,122.428 139.245 L 123.660 135.912 131.556 143.587 C 149.447 160.976,169.813 170.401,194.965 172.931 L 198.913 173.328 198.586 166.470 C 197.382 141.306,221.323 122.650,244.709 130.529 " stroke="none" fill="#FFFFFF" fill-rule="evenodd"></path></g></svg>
